<svg xmlns="http://www.w3.org/2000/svg" width="256" height="256" viewBox="0 0 100 100"><rect width="100" height="100" rx="20" fill="#663399"></rect><path fill="#fff" d="M12.60 61.18L12.60 61.18Q11.23 61.18 10.65 60.67Q10.08 60.17 10.08 58.98L10.08 58.98L10.08 39.07Q10.40 39.00 11.01 38.89Q11.62 38.79 12.24 38.79L12.24 38.79Q13.53 38.79 14.14 39.25Q14.76 39.72 14.76 40.98L14.76 40.98L14.76 60.89Q14.43 60.96 13.84 61.07Q13.24 61.18 12.60 61.18ZM34.88 49.91L34.88 49.91Q34.88 47.97 34.34 46.54Q33.80 45.12 32.85 44.20Q31.89 43.29 30.58 42.84Q29.26 42.39 27.72 42.39L27.72 42.39Q26.89 42.39 26.22 42.44Q25.56 42.49 24.94 42.57L24.94 42.57L24.94 57.36Q25.56 57.51 26.33 57.56Q27.10 57.61 27.86 57.61L27.86 57.61Q31.21 57.61 33.04 55.67Q34.88 53.73 34.88 49.91ZM39.67 49.87L39.67 49.87Q39.67 52.79 38.82 54.97Q37.98 57.15 36.43 58.57Q34.88 59.99 32.70 60.71Q30.52 61.43 27.86 61.43L27.86 61.43Q27.25 61.43 26.53 61.41Q25.81 61.39 25.03 61.30Q24.26 61.21 23.49 61.07Q22.71 60.93 22.03 60.67L22.03 60.67Q20.30 60.03 20.30 58.51L20.30 58.51L20.30 40.87Q20.30 40.23 20.66 39.87Q21.02 39.51 21.67 39.29L21.67 39.29Q23.00 38.82 24.57 38.70Q26.13 38.57 27.54 38.57L27.54 38.57Q30.24 38.57 32.49 39.27Q34.74 39.97 36.32 41.38Q37.90 42.78 38.79 44.91Q39.67 47.03 39.67 49.87ZM57.81 55.42L57.81 55.42Q57.45 55.71 56.88 55.89Q56.30 56.07 55.54 56.07L55.54 56.07Q54.61 56.07 53.98 55.83Q53.35 55.60 53.10 54.99L53.10 54.99Q51.62 51.31 50.61 48.72Q49.60 46.13 48.99 44.29L48.99 44.29L48.81 44.29Q48.70 46.71 48.61 48.72Q48.52 50.74 48.45 52.66Q48.38 54.59 48.29 56.57Q48.20 58.55 48.06 60.85L48.06 60.85Q47.70 60.96 47.16 61.07Q46.62 61.18 46.00 61.18L46.00 61.18Q43.59 61.18 43.59 59.38L43.59 59.38Q43.59 58.80 43.65 57.60Q43.70 56.39 43.79 54.79Q43.88 53.19 44.01 51.28Q44.13 49.37 44.26 47.43Q44.38 45.48 44.53 43.59Q44.67 41.70 44.78 40.08L44.78 40.08Q45.07 39.72 45.84 39.34Q46.62 38.97 47.84 38.97L47.84 38.97Q49.21 38.97 50.05 39.42Q50.90 39.87 51.33 40.91L51.33 40.91Q51.80 42.03 52.32 43.36Q52.84 44.69 53.38 46.09Q53.92 47.50 54.45 48.85Q54.97 50.20 55.44 51.39L55.44 51.39L55.58 51.39Q56.80 48.00 58.01 44.83Q59.22 41.67 60.12 39.47L60.12 39.47Q60.55 39.25 61.23 39.11Q61.92 38.97 62.64 38.97L62.64 38.97Q63.97 38.97 64.76 39.36Q65.55 39.76 65.73 40.55L65.73 40.55Q65.88 41.23 66.06 42.73Q66.24 44.22 66.42 46.13Q66.60 48.04 66.78 50.20Q66.96 52.36 67.10 54.36Q67.24 56.35 67.35 58.01Q67.46 59.67 67.50 60.60L67.50 60.60Q67.03 60.89 66.51 61.03Q65.98 61.18 65.23 61.18L65.23 61.18Q64.29 61.18 63.59 60.80Q62.89 60.42 62.82 59.38L62.82 59.38Q62.67 57.11 62.56 54.93Q62.46 52.75 62.38 50.81Q62.31 48.87 62.24 47.23Q62.17 45.59 62.13 44.40L62.13 44.40L61.95 44.40Q61.38 46.09 60.37 48.70Q59.36 51.31 57.81 55.42ZM84.56 59.41L80.28 53.04L74.70 61.14Q74.48 61.18 74.25 61.20Q74.01 61.21 73.80 61.21L73.80 61.21Q72.43 61.21 71.71 60.62Q70.99 60.03 70.99 59.09L70.99 59.09Q70.99 58.33 71.33 57.74Q71.67 57.15 72.28 56.35L72.28 56.35L77.29 49.87L70.95 41.05Q71.20 40.23 71.92 39.54Q72.64 38.86 73.80 38.86L73.80 38.86Q74.59 38.86 75.20 39.29Q75.81 39.72 76.42 40.66L76.42 40.66L80.46 46.63L85.71 39.11Q86.18 38.93 87.01 38.93L87.01 38.93Q88.20 38.93 88.86 39.51Q89.53 40.08 89.53 40.95L89.53 40.95Q89.53 41.67 89.17 42.24Q88.81 42.82 88.20 43.61L88.20 43.61Q87.01 45.16 85.78 46.71Q84.56 48.25 83.30 49.84L83.30 49.84L89.92 59.02Q89.67 60.03 88.99 60.62Q88.30 61.21 87.15 61.21L87.15 61.21Q86.32 61.21 85.75 60.80Q85.17 60.39 84.56 59.41L84.56 59.41Z"></path></svg>